<svg xmlns="http://www.w3.org/2000/svg" viewBox="0 0 512 512" width="100%" height="100%">
  <rect width="512" height="512" rx="110" fill="#ffffff" />

  <rect x="324" y="80" width="108" height="108" rx="24" fill="#ffffff" stroke="#f0f0ee" stroke-width="4" />
  <rect x="80" y="202" width="108" height="108" rx="24" fill="#ffffff" stroke="#f0f0ee" stroke-width="4" />
  <rect x="80" y="324" width="230" height="108" rx="24" fill="#ffffff" stroke="#f0f0ee" stroke-width="4" />

  <rect x="80" y="80" width="230" height="108" rx="24" fill="#f8f8f7" stroke="#e8e8e6" stroke-width="4" />

  <rect x="202" y="202" width="230" height="108" rx="24" fill="#ffffff" stroke="#e8e8e6" stroke-width="4" />

  <rect x="324" y="324" width="108" height="108" rx="24" fill="#ffffff" stroke="#cccbc8" stroke-width="6" stroke-dasharray="12 10" />

  <path d="M 134 134 L 232 134 A 24 24 0 0 1 256 158 L 256 256" fill="none" stroke="#999894" stroke-width="8" stroke-linecap="round" />

  <path d="M 256 256 L 354 256 A 24 24 0 0 1 378 280 L 378 378" fill="none" stroke="#cccbc8" stroke-width="6" stroke-dasharray="12 12" />

  <circle cx="134" cy="134" r="10" fill="#999894" />

  <circle cx="378" cy="378" r="10" fill="#ffffff" stroke="#cccbc8" stroke-width="6" />

  <circle cx="256" cy="256" r="14" fill="#6b6b6b" />
  <circle cx="256" cy="256" r="5" fill="#ffffff" />
</svg>
